<?xml version="1.0" standalone="no"?>
<!DOCTYPE svg PUBLIC "-//W3C//DTD SVG 20010904//EN"
 "http://www.w3.org/TR/2001/REC-SVG-20010904/DTD/svg10.dtd">
<svg version="1.0" xmlns="http://www.w3.org/2000/svg"
 width="793.000000pt" height="1122.000000pt" viewBox="0 0 793.000000 1122.000000"
 preserveAspectRatio="xMidYMid meet">

<g transform="translate(0.000000,1122.000000) scale(0.100000,-0.100000)"
fill="#000000" stroke="none">
<path d="M1380 5615 l0 -2585 2585 0 2585 0 0 2585 0 2585 -2585 0 -2585 0 0
-2585z m1680 2109 c0 -8 -5 -12 -10 -9 -6 4 -8 11 -5 16 9 14 15 11 15 -7z
m100 6 c0 -5 -2 -10 -4 -10 -3 0 -8 5 -11 10 -3 6 -1 10 4 10 6 0 11 -4 11
-10z m946 0 c32 0 34 -2 24 -20 -11 -21 -9 -25 33 -71 16 -18 19 -18 33 -4 9
8 14 22 11 29 -7 18 12 36 36 36 16 0 17 -3 7 -15 -10 -12 -9 -16 4 -21 10 -4
15 -13 11 -22 -6 -17 25 -44 40 -33 15 12 75 9 75 -3 -1 -21 -27 -46 -51 -48
-27 -3 -45 -36 -29 -52 15 -15 12 -23 -11 -29 -15 -4 -19 -11 -14 -25 4 -15 0
-22 -17 -28 -13 -5 -27 -8 -33 -9 -5 0 -10 -13 -10 -28 0 -32 -23 -51 -42 -35
-7 6 -10 14 -7 19 3 5 0 9 -5 9 -6 0 -11 -9 -11 -20 0 -22 -7 -25 -30 -10 -12
7 -12 10 -1 10 8 0 11 6 7 16 -9 23 2 54 20 54 8 0 14 7 14 15 0 20 -13 19
-40 -5 -27 -24 -36 -25 -43 -6 -7 17 7 30 48 47 l30 12 -35 14 c-40 16 -70 63
-41 63 10 0 31 11 46 24 25 21 26 26 13 39 -11 12 -17 12 -31 2 -9 -7 -17 -17
-17 -22 0 -21 -35 -7 -46 17 -8 19 -11 79 -5 109 1 2 8 0 17 -3 9 -3 31 -6 50
-6z m-856 -67 c6 -7 4 -13 -5 -17 -8 -3 -15 0 -15 7 0 7 -5 4 -11 -6 -11 -19
-6 -32 13 -32 6 0 14 -10 19 -21 6 -18 4 -21 -11 -17 -20 5 -36 -12 -20 -22
15 -9 12 -22 -5 -22 -8 0 -12 4 -9 9 3 4 0 8 -5 8 -6 0 -11 5 -11 11 0 13 -20
33 -42 42 -10 3 -15 12 -12 21 7 19 -32 42 -39 23 -3 -6 -6 -3 -6 9 -1 11 -7
26 -13 33 -11 11 -8 12 14 7 16 -4 36 -1 48 6 15 10 22 10 32 0 17 -17 28 -15
28 6 1 14 4 12 20 -8 11 -14 24 -30 30 -37z m406 -50 c-4 -9 -2 -20 5 -23 7
-5 1 -16 -17 -33 -28 -26 -28 -27 -9 -41 11 -8 23 -12 27 -10 5 3 8 2 8 -1 0
-3 -18 -14 -40 -24 -22 -10 -37 -20 -34 -24 3 -3 13 -3 21 0 9 4 16 -2 20 -15
2 -11 13 -22 24 -25 20 -5 27 -27 9 -27 -7 0 -7 -7 0 -21 7 -13 19 -19 33 -17
24 3 77 -38 77 -59 0 -7 5 -13 10 -13 19 0 10 -19 -12 -26 -14 -4 -25 -1 -33
10 -7 9 -16 16 -20 16 -4 0 -2 -7 5 -15 10 -12 10 -15 -3 -15 -25 0 -42 27
-27 45 10 12 9 15 -7 15 -10 0 -23 -4 -29 -9 -5 -6 -24 -4 -47 4 -31 11 -37
10 -35 0 3 -15 3 -15 -43 -15 -17 0 -28 4 -24 10 3 6 -3 10 -15 10 -11 0 -23
-7 -26 -15 -9 -23 -26 -18 -19 5 4 13 1 22 -9 26 -9 3 -16 18 -16 33 0 14 -4
33 -10 41 -5 9 -5 19 2 27 8 10 7 13 -3 10 -8 -2 -11 -2 -6 0 4 3 5 8 3 11 -2
4 10 8 27 8 18 1 35 -3 39 -9 4 -7 11 -7 22 2 14 12 16 10 16 -7 0 -11 -6 -22
-12 -25 -9 -3 -8 -10 6 -23 10 -11 16 -13 12 -7 -8 15 10 53 33 69 12 10 13
15 3 27 -10 11 -9 17 2 26 8 7 13 22 10 35 -3 17 3 26 22 36 14 8 30 22 35 32
12 23 33 24 25 1z m359 7 c4 -6 3 -10 -2 -9 -4 1 -10 0 -13 -1 -18 -7 -40 -7
-40 0 0 5 10 11 23 13 12 2 23 5 24 6 1 0 5 -4 8 -9z m-155 -10 c0 -5 -4 -10
-9 -10 -6 0 -13 5 -16 10 -3 6 1 10 9 10 9 0 16 -4 16 -10z m51 -20 c21 0 34
-16 20 -24 -5 -4 -20 4 -33 16 -13 13 -19 20 -14 16 6 -5 18 -8 27 -8z m-423
-55 c-2 -2 -15 -1 -30 2 -17 3 -25 10 -21 19 4 11 9 10 29 -3 14 -9 23 -17 22
-18z m37 15 c8 -13 -5 -13 -25 0 -13 8 -13 10 2 10 9 0 20 -4 23 -10z m-345
-6 c0 -3 -7 -12 -16 -21 -12 -12 -13 -18 -3 -27 8 -8 13 -8 16 2 3 6 9 10 14
6 5 -3 2 -12 -6 -20 -8 -9 -13 -19 -10 -24 3 -4 -2 -13 -10 -20 -8 -7 -12 -16
-9 -21 3 -5 -5 -9 -16 -9 -15 0 -20 5 -17 14 3 8 3 17 -1 21 -12 12 -1 80 16
93 16 12 42 16 42 6z m745 -4 c-3 -5 -12 -10 -18 -10 -7 0 -6 4 3 10 19 12 23
12 15 0z m-1185 -10 c0 -5 -6 -10 -14 -10 -8 0 -18 5 -21 10 -3 6 3 10 14 10
12 0 21 -4 21 -10z m540 -8 c0 -5 -7 -9 -15 -9 -8 0 -12 4 -9 9 3 4 9 8 15 8
5 0 9 -4 9 -8z m-411 -31 c17 -9 26 -10 34 -2 18 18 29 13 25 -11 -3 -26 -27
-31 -45 -8 -9 10 -12 11 -13 3 0 -8 -15 -13 -39 -13 -53 0 -71 8 -71 32 0 13
4 17 13 11 23 -14 45 -13 52 4 4 11 9 14 13 7 4 -6 18 -17 31 -23z m1101 4 c0
-17 16 -20 25 -5 11 18 25 10 25 -15 0 -14 -4 -25 -10 -25 -5 0 -10 -16 -10
-35 0 -26 -4 -35 -17 -36 -10 0 -26 -2 -35 -4 -31 -6 -29 13 2 20 37 8 39 31
4 39 -21 6 -25 11 -20 29 3 12 6 28 6 35 0 6 7 12 15 12 8 0 15 -7 15 -15z
m-1197 -58 c6 3 7 1 3 -6 -4 -6 -12 -9 -17 -6 -5 4 -9 -2 -9 -12 0 -15 -2 -16
-10 -3 -10 16 -31 20 -40 9 -3 -4 -15 -3 -28 2 -27 10 -19 33 8 24 10 -3 21
-1 24 4 4 6 17 4 33 -4 15 -8 31 -11 36 -8z m527 14 c0 -5 -19 -24 -42 -42
-24 -19 -37 -26 -30 -17 8 10 10 23 6 29 -4 7 1 18 11 26 21 15 55 18 55 4z
m1150 -42 c0 -12 -12 -11 -50 5 -30 12 -31 14 -15 24 14 7 25 6 42 -5 13 -8
23 -19 23 -24z m-1072 3 c3 -9 -3 -13 -19 -10 -12 1 -24 9 -27 16 -3 9 3 13
19 10 12 -1 24 -9 27 -16z m-461 2 c-3 -3 -12 -4 -19 -1 -8 3 -5 6 6 6 11 1
17 -2 13 -5z m-127 -10 c0 -8 -19 -13 -24 -6 -3 5 1 9 9 9 8 0 15 -2 15 -3z
m220 2 c0 -11 -19 -15 -25 -6 -3 5 1 10 9 10 9 0 16 -2 16 -4z m285 -16 c3 -5
17 -10 30 -10 23 0 35 -17 35 -51 0 -11 11 -24 25 -31 14 -6 25 -17 25 -23 0
-7 7 -18 15 -25 8 -7 12 -16 9 -22 -3 -5 -11 -4 -20 3 -7 6 -20 9 -28 6 -8 -3
-13 1 -12 11 1 13 -6 16 -27 15 -22 -2 -27 2 -23 13 3 8 0 27 -6 42 -9 22 -12
24 -15 9 -3 -12 -10 -16 -24 -12 -14 5 -21 0 -29 -20 -7 -19 -16 -25 -30 -23
-12 2 -20 7 -20 12 1 6 -17 17 -40 26 -86 33 -69 66 34 65 47 -1 70 3 73 12 6
15 19 17 28 3z m1245 -28 c234 -60 483 -183 675 -334 216 -171 414 -408 530
-637 68 -135 165 -427 165 -497 0 -22 -3 -24 -37 -20 -20 3 -40 11 -44 18 -13
20 0 23 15 3 13 -18 14 -18 20 2 4 12 5 32 2 45 -22 116 -71 265 -126 384 -41
88 -149 263 -164 264 -5 0 -39 -22 -76 -50 -37 -27 -72 -50 -78 -50 -6 0 -43
43 -82 95 -149 196 -366 373 -583 473 -80 37 -244 91 -303 99 -24 3 -44 10
-44 15 0 6 6 8 14 5 7 -3 23 1 34 9 13 9 31 12 47 8 15 -4 25 -2 25 5 0 10 -8
13 -42 14 -24 1 -93 -16 -105 -25 -14 -11 -53 -1 -53 13 0 6 -12 1 -26 -10
-23 -18 -28 -19 -41 -6 -15 16 -28 18 -80 15 -24 -1 -33 3 -33 14 0 9 8 16 19
16 27 0 34 15 16 30 -21 18 -19 40 5 40 13 0 18 5 14 15 -4 8 -2 15 2 15 5 0
18 7 29 16 17 13 18 16 5 24 -13 9 -13 11 0 21 25 17 176 3 300 -29z m-1516
-31 c-7 -7 -34 21 -28 31 3 5 12 1 19 -9 7 -10 12 -20 9 -22z m-266 -51 c34
-21 40 -34 20 -46 -6 -4 -8 -3 -5 3 11 17 -19 34 -46 28 -24 -6 -28 0 -18 33
2 6 19 0 49 -18z m1272 -8 c0 -15 -2 -15 -10 -2 -13 20 -13 33 0 25 6 -3 10
-14 10 -23z m-1150 -8 c0 -8 5 -14 10 -14 6 0 10 5 10 10 0 16 21 11 39 -9 15
-17 85 -36 75 -19 -11 18 27 6 50 -15 18 -16 24 -31 21 -47 -7 -38 -21 -43
-39 -16 -14 23 -14 26 -1 26 8 0 15 5 15 10 0 16 -33 26 -38 12 -5 -16 -33
-15 -56 3 -22 17 -36 11 -36 -16 0 -23 -32 -26 -49 -5 -10 11 -8 17 6 25 17
10 17 10 -2 12 -11 1 -24 1 -29 0 -5 -1 -16 5 -26 14 -9 8 -19 12 -23 9 -3 -3
-3 3 0 14 8 32 73 37 73 6z m1221 11 c0 -5 -9 -11 -21 -13 -20 -3 -27 8 -13
22 10 9 34 3 34 -9z m-456 -25 c3 -5 1 -10 -4 -10 -6 0 -11 5 -11 10 0 6 2 10
4 10 3 0 8 -4 11 -10z m366 -10 c5 0 9 -5 9 -11 0 -6 -6 -9 -14 -6 -10 4 -12
0 -9 -14 3 -11 9 -22 14 -25 5 -3 9 -14 9 -24 0 -17 -3 -18 -27 -9 -15 6 -31
16 -35 22 -8 12 -24 -2 -55 -49 -8 -12 -12 -14 -10 -4 1 10 -10 15 -41 16 -23
1 -40 -2 -37 -6 3 -5 -3 -14 -14 -20 -17 -9 -19 -7 -16 10 2 11 0 20 -4 20 -4
0 -9 22 -10 49 -1 45 1 49 18 44 11 -3 19 -8 18 -12 -1 -3 3 -6 8 -6 6 0 9 4
7 10 -2 5 5 1 16 -8 14 -13 22 -15 27 -7 4 7 19 9 36 5 16 -4 29 -2 29 3 0 12
42 32 58 26 8 -2 18 -4 23 -4z m-388 -40 c19 0 24 -8 31 -43 5 -29 -6 -42 -47
-52 -17 -5 -27 -3 -27 4 0 8 -5 9 -19 2 -15 -9 -20 -7 -24 9 -3 11 -1 23 4 26
6 4 6 11 -1 18 -7 10 -3 20 17 40 24 24 29 26 39 12 6 -9 18 -16 27 -16z
m-886 -65 c3 -9 3 -18 0 -21 -9 -9 -68 7 -62 16 3 5 12 7 20 3 8 -3 15 0 15 6
0 17 20 13 27 -4z m203 5 c0 -5 -2 -10 -4 -10 -3 0 -8 5 -11 10 -3 6 -1 10 4
10 6 0 11 -4 11 -10z m1645 -40 c393 -126 727 -430 926 -845 60 -125 114 -274
125 -344 l7 -41 -145 0 -145 0 -33 93 c-17 50 -44 115 -60 143 -17 31 -25 56
-20 64 5 7 7 22 5 32 -2 11 0 16 6 12 6 -3 9 -20 7 -37 -2 -19 2 -32 11 -35 9
-3 11 0 6 8 -5 9 -4 11 4 6 9 -6 9 -11 -1 -24 -10 -12 -10 -14 0 -8 8 5 20 -1
31 -15 17 -21 21 -22 37 -9 16 14 17 13 10 -5 -4 -11 -4 -16 0 -12 9 9 35 -13
29 -23 -3 -5 -2 -11 3 -14 11 -6 12 27 2 34 -6 4 -18 58 -20 91 0 4 -8 6 -17
5 -14 -1 -19 8 -21 42 -2 29 -8 42 -18 42 -8 0 -19 11 -24 24 -5 13 -14 27
-19 31 -6 3 -11 15 -11 27 0 16 -5 19 -25 16 -17 -4 -25 -1 -25 8 0 26 -27 13
-46 -21 -10 -18 -9 -21 7 -22 11 -1 17 2 14 8 -4 5 -1 9 5 9 6 0 9 -12 7 -27
-3 -16 -9 -27 -15 -26 -6 2 -9 -4 -6 -12 4 -8 1 -15 -5 -15 -7 0 -14 7 -18 15
-3 9 -19 30 -35 48 -74 80 -118 139 -112 149 4 7 2 8 -4 4 -15 -9 -112 81
-112 105 0 22 16 33 26 18 5 -8 3 -9 -7 -4 -11 7 -12 6 -2 -7 7 -8 11 -18 8
-21 -3 -4 -2 -4 3 -1 7 5 8 10 11 36 0 7 8 3 17 -8 8 -10 13 -14 10 -8 -3 7 1
14 9 18 8 3 15 1 15 -5 0 -6 6 -7 13 -3 6 4 4 -2 -6 -13 -16 -19 -16 -20 1
-36 15 -14 19 -15 19 -2 0 8 -4 12 -8 9 -4 -2 -10 0 -14 6 -3 5 1 10 9 10 9 0
16 6 16 14 0 7 8 20 18 27 14 11 15 11 5 -1 -7 -8 -13 -21 -13 -29 1 -9 9 2
19 24 14 30 17 55 14 98 -5 50 -8 57 -27 57 -13 0 -36 -15 -53 -35 -37 -42
-45 -43 -63 -10 -11 21 -15 23 -22 10 -15 -26 -38 -18 -38 14 0 33 -20 54 -44
45 -12 -5 -19 0 -23 15 -4 16 -10 20 -29 15 -18 -5 -24 -2 -24 10 0 8 -13 22
-30 31 -16 9 -30 22 -30 30 0 24 -36 17 -55 -11 -13 -20 -19 -23 -30 -14 -7 6
-22 10 -32 8 -14 -2 -19 4 -21 30 -2 17 -8 32 -15 32 -8 0 -8 3 1 12 7 7 12
17 12 24 0 17 -37 5 -45 -14 -15 -40 -31 -61 -52 -71 -19 -9 -23 -8 -23 5 0
32 -35 10 -38 -24 -6 -58 -25 -29 -27 41 -1 36 -8 73 -15 82 -16 19 -44 19
-59 1 -7 -8 -20 -12 -31 -9 -14 4 -23 -2 -30 -18 -22 -48 -37 -69 -46 -61 -4
4 -3 -1 4 -10 11 -14 11 -16 -2 -14 -9 1 -18 5 -22 8 -3 4 -19 2 -35 -4 -78
-27 -39 27 94 132 34 27 55 50 52 59 -4 10 1 12 20 7 14 -4 31 -3 38 1 7 4 19
8 27 9 50 3 50 4 46 30 -5 27 -5 27 47 21 29 -3 97 -20 152 -37z m-1309 -2 c3
-11 3 -22 0 -25 -3 -4 -1 -11 4 -18 6 -8 5 -18 -4 -30 -12 -17 -14 -16 -24 14
-10 27 -15 31 -33 26 -17 -6 -20 -3 -17 12 2 10 9 17 15 16 7 -2 15 6 18 17 7
23 32 16 41 -12z m504 -19 c0 -6 -4 -7 -10 -4 -5 3 -10 11 -10 16 0 6 5 7 10
4 6 -3 10 -11 10 -16z m-397 -26 c-10 -3 -10 -10 -2 -24 13 -25 4 -40 -19 -32
-16 6 -15 5 1 -11 13 -14 15 -21 6 -32 -6 -7 -8 -17 -5 -22 3 -6 -3 -12 -13
-15 -14 -3 -18 -1 -14 10 3 8 1 18 -4 22 -14 9 -26 91 -13 91 5 0 10 6 10 14
0 8 10 16 23 18 25 4 50 -12 30 -19z m837 8 c0 -14 -146 -121 -165 -121 -2 0
0 12 4 28 4 15 17 31 29 37 12 5 22 15 22 22 0 15 15 24 54 34 44 10 56 10 56
0z m-190 -15 c0 -3 -4 -8 -10 -11 -5 -3 -10 -1 -10 4 0 6 5 11 10 11 6 0 10
-2 10 -4z m50 -10 c0 -3 -4 -8 -10 -11 -5 -3 -10 -1 -10 4 0 6 5 11 10 11 6 0
10 -2 10 -4z m-1316 -125 c-2 -3 -12 3 -22 13 -16 17 -16 18 5 5 12 -7 20 -15
17 -18z m272 -18 c20 -27 34 -30 34 -7 0 8 5 12 10 9 13 -8 13 -42 -1 -50 -6
-4 -16 1 -23 10 -12 16 -13 16 -29 0 -28 -27 -21 -50 15 -52 18 -2 35 3 39 9
6 9 11 9 22 -1 10 -8 17 -9 22 -1 8 12 45 13 64 1 7 -5 14 -20 14 -34 0 -15 8
-34 18 -43 23 -21 24 -34 4 -34 -8 0 -15 6 -15 14 0 13 -17 25 -31 22 -3 0
-13 5 -22 12 -9 8 -21 11 -27 7 -19 -12 -10 -24 25 -31 19 -3 38 -11 42 -17 4
-7 -5 -8 -27 -3 -19 3 -50 23 -74 46 -39 39 -78 51 -91 30 -7 -12 -45 -13 -45
-2 0 5 9 8 20 8 26 -1 27 17 1 30 -11 6 -18 14 -14 18 4 3 8 16 10 27 2 15 -1
20 -12 16 -19 -8 -30 10 -16 27 18 21 67 14 87 -11z m-162 -29 c3 -9 1 -12 -5
-9 -5 4 -16 1 -24 -5 -11 -9 -19 -10 -28 -1 -8 6 -17 8 -21 4 -4 -4 -4 0 -1 9
11 29 68 30 79 2z m1415 -134 c187 -50 316 -115 468 -237 103 -83 159 -142
243 -254 96 -129 206 -363 177 -375 -7 -2 -78 -3 -157 -2 l-143 3 -51 88
c-109 188 -317 365 -493 417 -26 8 -47 24 -63 48 -14 20 -50 73 -80 117 l-55
80 -5 -375 -5 -375 -152 -3 -153 -3 -1 328 c-1 181 -1 334 0 341 1 6 -2 19 -7
27 -6 12 -23 -8 -73 -82 -36 -54 -77 -104 -93 -112 -156 -86 -207 -122 -297
-212 -69 -69 -110 -120 -143 -179 -25 -45 -46 -86 -46 -91 0 -5 -9 -9 -19 -9
-23 0 -34 25 -22 48 4 9 6 23 4 30 -3 6 3 12 14 13 10 0 13 3 6 6 -10 3 -10 9
0 24 6 10 16 19 22 19 9 0 55 72 47 74 -2 1 2 14 8 30 12 31 2 46 -31 46 -20
0 -49 -71 -42 -101 5 -19 4 -20 -16 -10 -27 15 -41 7 -41 -25 0 -18 -5 -24
-21 -24 -22 0 -22 6 -5 65 4 11 2 26 -3 34 -14 21 -41 5 -41 -24 0 -35 -21
-55 -56 -52 -24 2 -30 -3 -41 -33 -6 -19 -12 -54 -12 -77 -1 -41 -2 -43 -31
-43 -16 0 -30 4 -30 9 0 21 50 161 75 211 78 156 210 314 348 417 61 46 71 50
98 43 17 -5 37 -14 45 -21 11 -9 14 -8 14 4 0 9 -9 21 -20 27 -11 6 -20 15
-20 20 0 14 177 96 270 124 161 50 204 56 380 52 131 -3 182 -8 249 -26z
m-1004 -20 c3 -5 -1 -10 -10 -10 -9 0 -13 5 -10 10 3 6 8 10 10 10 2 0 7 -4
10 -10z m-609 -10 c8 0 14 -7 14 -16 0 -10 -6 -14 -14 -11 -7 3 -26 -1 -41 -9
-34 -18 -32 -18 -46 7 -10 20 -9 21 15 15 20 -5 26 -3 26 10 0 11 5 14 16 10
9 -3 22 -6 30 -6z m84 -26 c0 -22 2 -25 15 -14 12 10 15 9 15 -5 0 -12 6 -16
18 -13 11 3 19 0 19 -8 0 -8 -10 -14 -22 -14 -11 0 -26 -5 -31 -10 -16 -16
-34 11 -38 54 -1 25 2 36 11 36 7 0 13 -11 13 -26z m-225 -15 c4 -6 5 -12 2
-15 -7 -7 -37 7 -37 17 0 13 27 11 35 -2z m90 -29 c3 -5 2 -10 -4 -10 -5 0
-13 5 -16 10 -3 6 -2 10 4 10 5 0 13 -4 16 -10z m2243 -23 c6 -5 11 -16 11
-25 -1 -15 -2 -15 -6 1 -2 9 -8 15 -13 12 -4 -3 -13 2 -19 9 -9 11 -9 14 1 12
7 -1 19 -5 26 -9z m-2241 -160 c3 -5 -5 -7 -18 -5 -15 2 -23 -2 -21 -9 3 -16
-13 -17 -39 -2 -11 5 -17 14 -13 20 7 12 83 9 91 -4z m-80 -69 c-3 -8 -6 -5
-6 6 -1 11 2 17 5 13 3 -3 4 -12 1 -19z m-63 -13 c-24 -18 -34 -19 -34 -1 0 8
10 16 23 18 31 5 34 0 11 -17z m2733 -92 c0 -10 -5 -21 -10 -25 -7 -4 -6 -12
3 -23 16 -20 22 -45 10 -45 -4 0 -13 14 -20 30 -7 17 -18 30 -24 31 -6 0 -2 4
9 8 11 5 21 13 21 20 3 27 11 30 11 4z m-2609 -192 c-6 -10 -18 -17 -25 -14
-17 7 2 33 23 33 11 0 12 -4 2 -19z m3091 -193 c-13 -23 -19 -19 -23 14 -1 13
-6 30 -11 38 -4 8 4 4 18 -9 21 -19 24 -27 16 -43z m71 58 c0 -2 -8 -10 -17
-17 -16 -13 -17 -12 -4 4 13 16 21 21 21 13z m5 -26 c-4 -6 -1 -19 7 -28 12
-15 11 -16 -4 -3 -14 11 -18 11 -18 1 0 -8 -3 -11 -6 -8 -6 7 13 48 22 48 3 0
2 -5 -1 -10z m83 -15 c-3 -3 -9 2 -12 12 -6 14 -5 15 5 6 7 -7 10 -15 7 -18z
m-118 1 c0 -2 -8 -10 -17 -17 -16 -13 -17 -12 -4 4 13 16 21 21 21 13z m-1996
-96 c3 -3 36 -4 73 -2 37 1 93 2 123 1 62 -2 89 -2 175 1 33 1 62 1 65 0 18
-7 122 -5 126 2 3 5 12 4 19 -2 9 -7 20 -8 32 -2 17 8 1779 9 1788 1 2 -2 -19
-31 -47 -64 -27 -33 -61 -75 -75 -93 l-25 -32 76 -90 77 -90 -2142 0 c-2109 0
-2141 0 -2128 19 8 11 40 48 72 84 31 35 57 67 57 70 0 3 -34 45 -75 94 -41
48 -75 91 -75 95 0 4 57 9 128 10 232 5 1750 3 1756 -2z m-1184 -429 c0 -6 10
-8 21 -6 21 4 21 4 4 -15 -13 -14 -22 -17 -30 -10 -6 5 -14 7 -18 4 -4 -5 -3
16 2 34 2 7 21 1 21 -7z m580 -63 c77 -253 247 -447 496 -567 64 -30 74 -39
105 -94 48 -87 47 -90 -6 -19 -36 50 -58 69 -99 87 -217 96 -397 281 -490 504
-25 58 -46 161 -33 161 3 0 15 -33 27 -72z m989 -170 c-1 -134 -5 -252 -10
-263 -6 -15 -8 -16 -8 -4 -1 15 -34 33 -54 30 -5 -1 -6 2 -3 7 3 5 -2 21 -10
36 -7 16 -14 38 -14 49 0 11 -3 17 -7 14 -3 -4 -11 3 -17 14 -15 29 -30 29
-34 2 -2 -13 -8 -23 -13 -23 -5 0 -9 -6 -9 -14 0 -8 -7 -16 -15 -20 -8 -3 -15
-16 -15 -30 0 -13 -7 -26 -15 -30 -8 -3 -15 -16 -15 -30 0 -32 -10 -57 -20
-51 -5 3 -12 -16 -16 -41 -5 -35 -9 -43 -16 -30 -5 10 -5 23 2 36 8 16 8 20
-2 18 -10 -2 -14 56 -16 285 l-3 287 156 0 156 0 -2 -242z m-1712 200 c-3 -7
-5 -2 -5 12 0 14 2 19 5 13 2 -7 2 -19 0 -25z m3178 -3 c-2 -44 -10 -53 -25
-25 -9 18 -8 25 6 41 9 10 18 19 19 19 1 0 1 -16 0 -35z m-692 5 c-3 -12 -8
-19 -11 -16 -5 6 5 36 12 36 2 0 2 -9 -1 -20z m-2480 -83 c4 -26 3 -46 -1 -43
-5 3 -9 26 -11 53 -3 59 4 54 12 -10z m157 28 c0 -28 -14 -32 -35 -11 -10 10
-11 16 -2 25 19 19 37 12 37 -14z m2291 -54 c-32 -93 -76 -167 -142 -245 -102
-119 -237 -218 -373 -273 -34 -14 -71 -34 -83 -46 -13 -11 -23 -16 -23 -11 1
22 39 54 90 75 237 97 454 315 525 528 9 28 21 51 26 51 4 0 -4 -36 -20 -79z
m-551 -113 c-1 -112 -2 -121 -15 -98 -21 37 -21 220 0 220 13 0 15 -20 15
-122z m-2096 64 c2 -4 7 -24 11 -45 7 -35 6 -37 -19 -37 -23 0 -26 4 -26 38 0
21 3 42 7 45 9 9 21 9 27 -1z m214 -69 c-3 -15 -5 -15 -22 3 -18 17 -18 19 -3
22 9 2 18 9 18 15 1 7 3 4 6 -5 2 -10 3 -26 1 -35z m142 -35 c0 -12 -3 -18 -7
-14 -11 10 -12 36 -2 36 5 0 9 -10 9 -22z m-137 -5 c3 -5 6 -24 8 -43 2 -19 6
-39 9 -45 19 -29 19 -45 0 -45 -21 0 -26 12 -35 88 -5 33 -3 52 3 52 6 0 13
-3 15 -7z m144 -75 c-3 -8 -6 -5 -6 6 -1 11 2 17 5 13 3 -3 4 -12 1 -19z
m-223 -41 c7 -7 11 -18 8 -25 -2 -7 2 -19 8 -28 7 -8 10 -17 7 -20 -3 -4 4
-15 16 -25 12 -10 16 -18 10 -19 -7 0 -13 -11 -13 -25 0 -14 -4 -25 -9 -25
-11 0 -41 79 -41 107 0 12 -4 33 -10 47 -10 29 2 35 24 13z m2976 -7 c8 -5 11
-10 5 -10 -5 0 -17 5 -25 10 -8 5 -10 10 -5 10 6 0 17 -5 25 -10z m265 -70 c3
-5 -1 -10 -9 -10 -8 0 -18 5 -21 10 -3 6 1 10 9 10 8 0 18 -4 21 -10z m-3095
-26 c0 -8 -4 -12 -10 -9 -5 3 -10 10 -10 16 0 5 5 9 10 9 6 0 10 -7 10 -16z
m-20 -94 c0 -5 -5 -10 -11 -10 -5 0 -7 5 -4 10 3 6 8 10 11 10 2 0 4 -4 4 -10z
m70 -42 c0 -4 -5 -8 -11 -8 -8 0 -8 -4 -1 -13 6 -6 17 -30 25 -52 8 -22 17
-47 21 -56 5 -11 1 -18 -13 -22 -12 -3 -22 1 -25 10 -3 8 -10 12 -15 8 -5 -3
-12 -1 -16 5 -3 6 3 10 15 10 17 0 20 4 15 21 -4 12 -8 27 -10 33 -1 6 -7 24
-13 39 -15 36 -15 36 8 34 11 -1 20 -5 20 -9z m280 -22 c0 -3 -4 -8 -10 -11
-5 -3 -10 -1 -10 4 0 6 5 11 10 11 6 0 10 -2 10 -4z m-400 -21 c0 -8 9 -23 20
-32 11 -10 20 -27 20 -38 0 -11 9 -35 20 -52 11 -18 19 -33 17 -34 -1 0 -14
-2 -29 -3 -17 -1 -24 2 -18 8 6 6 5 16 -1 28 -5 10 -7 22 -4 27 3 5 -5 22 -18
38 -13 15 -29 38 -36 51 -10 19 -9 22 9 22 11 0 20 -7 20 -15z m370 0 c0 -3
-51 -38 -112 -78 -155 -101 -169 -109 -174 -104 -3 3 274 186 284 187 1 0 2
-2 2 -5z m-420 -15 c0 -5 -2 -10 -4 -10 -3 0 -8 5 -11 10 -3 6 -1 10 4 10 6 0
11 -4 11 -10z m273 -200 c10 -22 32 -53 48 -71 33 -36 34 -39 15 -39 -18 0
-109 128 -101 141 11 16 20 9 38 -31z m441 -8 c-7 -23 -19 -29 -29 -12 -9 14
15 54 26 43 4 -4 6 -18 3 -31z m-504 8 c0 -5 -5 -10 -11 -10 -5 0 -7 5 -4 10
3 6 8 10 11 10 2 0 4 -4 4 -10z m-45 -20 c-3 -5 -12 -10 -18 -10 -7 0 -6 4 3
10 19 12 23 12 15 0z m2365 -120 c-19 -17 -39 -30 -44 -30 -5 0 8 13 30 30 50
38 59 38 14 0z m-215 -130 c-3 -5 -12 -10 -18 -10 -7 0 -6 4 3 10 19 12 23 12
15 0z m233 -157 c-16 -2 -40 -2 -55 0 -16 2 -3 4 27 4 30 0 43 -2 28 -4z
m-1473 -73 c4 -7 -38 -9 -122 -8 -89 1 -111 3 -73 7 101 11 189 11 195 1z
m-317 -7 c-32 -2 -84 -2 -115 0 -32 2 -6 3 57 3 63 0 89 -1 58 -3z m510 -70
c-15 -2 -42 -2 -60 0 -18 2 -6 4 27 4 33 0 48 -2 33 -4z m1137 -2 c38 -6 42
-9 18 -10 -36 -1 -53 -19 -32 -32 8 -5 82 -9 164 -9 83 0 156 -4 164 -9 21
-14 -29 -16 -392 -19 -204 -2 -337 1 -337 6 0 13 51 23 145 28 91 5 116 11 97
22 -6 5 -89 6 -184 5 -95 -2 -198 0 -228 4 -50 7 -43 8 65 13 204 9 468 9 520
1z m-1550 -51 c13 -6 -11 -8 -70 -8 -62 0 -81 3 -60 8 41 10 106 10 130 0z
m808 -37 c-23 -2 -64 -2 -90 0 -26 2 -7 3 42 3 50 0 71 -1 48 -3z m-755 -19
c22 -6 22 -8 6 -25 -17 -18 -15 -19 52 -19 157 0 600 -12 614 -16 12 -4 12 -7
-4 -16 -16 -9 -508 -4 -681 8 -22 1 -74 3 -115 4 l-75 3 61 7 c33 4 66 10 72
14 17 10 15 26 -4 26 -8 0 -12 5 -9 10 7 11 48 13 83 4z m1178 -87 c13 -13
-381 -22 -426 -10 l-25 7 30 8 c31 7 413 3 421 -5z m-236 -62 c11 -13 -14 -15
-211 -15 -231 0 -311 6 -287 21 7 5 119 9 249 9 198 0 239 -2 249 -15z"/>
<path d="M4175 7593 c2 -10 4 -20 4 -22 1 -2 8 2 16 9 16 14 11 30 -10 30 -7
0 -12 -8 -10 -17z"/>
<path d="M3180 7659 c0 -5 5 -7 10 -4 6 3 10 8 10 11 0 2 -4 4 -10 4 -5 0 -10
-5 -10 -11z"/>
<path d="M4360 7210 c0 -5 5 -10 10 -10 6 0 10 5 10 10 0 6 -4 10 -10 10 -5 0
-10 -4 -10 -10z"/>
<path d="M5080 6570 c-1 -18 -3 -21 -8 -10 -6 12 -11 11 -32 -9 -14 -13 -19
-21 -12 -17 7 4 12 1 12 -9 0 -9 -4 -14 -9 -11 -5 4 -7 -3 -4 -14 4 -16 8 -18
19 -9 8 6 11 15 9 20 -3 4 7 2 22 -6 21 -11 30 -12 42 -2 11 9 13 9 8 0 -4 -6
-3 -15 3 -18 8 -5 7 -11 -1 -21 -6 -8 -8 -14 -4 -14 4 0 1 -8 -6 -17 -13 -16
-12 -17 3 -5 10 8 17 17 16 20 0 4 1 9 2 12 1 3 3 31 5 62 2 52 0 56 -16 48
-26 -14 -37 -12 -42 8 -3 12 -5 10 -7 -8z"/>
<path d="M5093 6474 c0 -7 6 -10 14 -7 7 3 13 8 13 12 0 4 -6 8 -13 8 -8 0
-14 -6 -14 -13z"/>
<path d="M4163 5645 c0 -22 2 -30 4 -17 2 12 2 30 0 40 -3 9 -5 -1 -4 -23z"/>
<path d="M3771 5654 c0 -11 3 -14 6 -6 3 7 2 16 -1 19 -3 4 -6 -2 -5 -13z"/>
<path d="M4382 5610 c0 -19 2 -27 5 -17 2 9 2 25 0 35 -3 9 -5 1 -5 -18z"/>
<path d="M3711 5594 c0 -11 3 -14 6 -6 3 7 2 16 -1 19 -3 4 -6 -2 -5 -13z"/>
<path d="M4321 5574 c0 -11 3 -14 6 -6 3 7 2 16 -1 19 -3 4 -6 -2 -5 -13z"/>
<path d="M5575 5349 c-4 -6 -5 -12 -2 -15 2 -3 7 2 10 11 7 17 1 20 -8 4z"/>
</g>
</svg>
